mtllib CSGCombiner.mtl
oCSGCombiner
v -1.605719 0.47776 0.782583
v -2.405696 0.47776 1.001013
v -2.405696 0.47776 0.782583
v -1.847957 0.47776 -0.780557
v -2.405696 0.47776 -0.780557
v -2.405696 0.47776 -0.998987
v 0.603271 0.47776 0.96084
v -2.405696 0.47776 1.001013
v -1.605719 0.47776 0.782583
v -0.303545 0.47776 0.782583
v 0.603271 0.47776 0.782583
v 0.603271 0.47776 0.96084
v 0.603271 0.47776 0.96084
v -1.605719 0.47776 0.782583
v -0.303545 0.47776 0.782583
v -1.845527 0.47776 -0.780557
v -2.405696 0.47776 -0.998987
v 0.603271 0.47776 -0.998987
v 0.603271 0.47776 -0.998987
v 0.603271 0.47776 -0.780557
v -0.652103 0.47776 -0.780557
v -0.652103 0.47776 -0.780557
v -1.845527 0.47776 -0.780557
v 0.603271 0.47776 -0.998987
v -1.845527 0.47776 -0.780557
v -1.847957 0.47776 -0.780557
v -2.405696 0.47776 -0.998987
v 0.603271 0.47776 0.782583
v 0.603271 0.020561 0.782583
v 0.603271 -0.11456 0.96084
v 0.603271 -0.11456 0.96084
v 0.603271 0.47776 0.96084
v 0.603271 0.47776 0.782583
v 0.603271 0.019683 0.782583
v 0.603271 -0.11456 0.96084
v 0.603271 0.020561 0.782583
v 0.603271 -0.11456 -0.780557
v 0.603271 -0.00429 -0.780557
v 0.603271 -0.11456 -0.998987
v 0.603271 0.019683 0.782583
v 0.603271 -0.11456 0.782583
v 0.603271 -0.11456 0.96084
v 0.603271 0.47776 -0.998987
v 0.603271 -0.11456 -0.998987
v 0.603271 -0.00429 -0.780557
v 0.603271 0.025462 -0.780557
v 0.603271 0.47776 -0.780557
v 0.603271 0.47776 -0.998987
v 0.603271 0.47776 -0.998987
v 0.603271 -0.00429 -0.780557
v 0.603271 0.025462 -0.780557
v 1.612402 -0.11456 -0.511701
v 1.946339 -0.11456 -0.998987
v 1.973869 -0.11456 0.96084
v 1.973869 -0.11456 0.96084
v 0.603271 -0.11456 0.96084
v 0.72543 -0.11456 0.782583
v 1.612402 -0.11456 0.782583
v 1.612402 -0.11456 -0.511701
v 1.973869 -0.11456 0.96084
v 1.973869 -0.11456 0.96084
v 0.72543 -0.11456 0.782583
v 1.612402 -0.11456 0.782583
v 1.946339 -0.11456 -0.998987
v 1.612402 -0.11456 -0.511701
v 1.612402 -0.11456 -0.548544
v 0.991909 -0.11456 -0.780557
v 0.603271 -0.11456 -0.780557
v 0.603271 -0.11456 -0.998987
v 1.946339 -0.11456 -0.998987
v 1.612402 -0.11456 -0.548544
v 1.612402 -0.11456 -0.780557
v 1.612402 -0.11456 -0.780557
v 0.991909 -0.11456 -0.780557
v 0.603271 -0.11456 -0.998987
v 0.603271 -0.11456 -0.998987
v 1.946339 -0.11456 -0.998987
v 1.612402 -0.11456 -0.780557
v 0.603271 -0.11456 0.782583
v 0.72543 -0.11456 0.782583
v 0.603271 -0.11456 0.96084
v -2.405696 0.313263 -0.780557
v -2.405696 0.47776 -0.998987
v -2.405696 0.47776 -0.780557
v -2.405696 -0.279622 0.782583
v -2.405696 0.47776 0.782583
v -2.405696 0.47776 1.001013
v -2.405696 -1.028412 1.001013
v -2.405696 -0.338117 0.084391
v -2.405696 -0.338117 0.721876
v -2.405696 -0.338117 0.782583
v -2.405696 -0.279622 0.782583
v -2.405696 0.47776 1.001013
v -2.405696 -1.028412 1.001013
v -2.405696 -0.338117 0.721876
v -2.405696 -0.338117 0.782583
v -2.405696 -0.338117 0.782583
v -2.405696 0.47776 1.001013
v -2.405696 -1.028412 1.001013
v -2.405696 -0.338117 0.084391
v -2.405696 -1.028412 1.001013
v -2.405696 -1.028412 -0.998987
v -2.405696 -1.028412 -0.998987
v -2.405696 0.47776 -0.998987
v -2.405696 0.313263 -0.780557
v -2.405696 -0.338117 -0.780557
v -2.405696 -0.338117 0.084391
v -2.405696 -1.028412 -0.998987
v -2.405696 -1.028412 -0.998987
v -2.405696 0.313263 -0.780557
v -2.405696 -0.338117 -0.780557
v 1.612402 -0.11456 -0.548544
v 1.612402 -0.338117 -0.780557
v 1.612402 -0.11456 -0.780557
v 1.612402 -0.11456 -0.548544
v 1.612402 -0.338117 0.782583
v 1.612402 -0.338117 -0.780557
v 1.612402 -0.338117 0.782583
v 1.612402 -0.11456 -0.511701
v 1.612402 -0.11456 0.782583
v 1.612402 -0.11456 -0.511701
v 1.612402 -0.338117 0.782583
v 1.612402 -0.11456 -0.548544
v 0.72543 -0.11456 0.782583
v 1.612402 -0.338117 0.782583
v 1.612402 -0.11456 0.782583
v 1.612402 -0.338117 0.782583
v -2.405696 -0.279622 0.782583
v -2.405696 -0.338117 0.782583
v -2.405696 -0.279622 0.782583
v 0.603271 0.47776 0.782583
v -0.303545 0.47776 0.782583
v 0.603271 -0.11456 0.782583
v 1.612402 -0.338117 0.782583
v 0.72543 -0.11456 0.782583
v -2.405696 -0.279622 0.782583
v 0.603271 0.020561 0.782583
v 0.603271 0.47776 0.782583
v 0.603271 -0.11456 0.782583
v -2.405696 -0.279622 0.782583
v 1.612402 -0.338117 0.782583
v -2.405696 -0.279622 0.782583
v 0.603271 0.019683 0.782583
v 0.603271 0.020561 0.782583
v 0.603271 0.019683 0.782583
v -2.405696 -0.279622 0.782583
v 0.603271 -0.11456 0.782583
v -1.605719 0.47776 0.782583
v -2.405696 -0.279622 0.782583
v -0.303545 0.47776 0.782583
v -2.405696 -0.279622 0.782583
v -1.605719 0.47776 0.782583
v -2.405696 0.47776 0.782583
v -2.405696 -0.338117 0.721876
v 1.612402 -0.338117 0.782583
v -2.405696 -0.338117 0.782583
v 1.612402 -0.338117 0.782583
v -2.405696 -0.338117 0.721876
v 1.612402 -0.338117 -0.780557
v 1.612402 -0.338117 -0.780557
v -2.405696 -0.338117 0.084391
v -2.405696 -0.338117 -0.780557
v -2.405696 -0.338117 0.084391
v 1.612402 -0.338117 -0.780557
v -2.405696 -0.338117 0.721876
v 0.991909 -0.11456 -0.780557
v 1.612402 -0.11456 -0.780557
v 1.612402 -0.338117 -0.780557
v 0.603271 0.47776 -0.780557
v 0.603271 0.025462 -0.780557
v -0.652103 0.47776 -0.780557
v -2.405696 0.313263 -0.780557
v 1.612402 -0.338117 -0.780557
v -2.405696 -0.338117 -0.780557
v 1.612402 -0.338117 -0.780557
v 0.603271 -0.11456 -0.780557
v 0.991909 -0.11456 -0.780557
v 0.603271 -0.00429 -0.780557
v -0.652103 0.47776 -0.780557
v 0.603271 0.025462 -0.780557
v -1.847957 0.47776 -0.780557
v -2.405696 0.313263 -0.780557
v -2.405696 0.47776 -0.780557
v -2.405696 0.313263 -0.780557
v 0.603271 -0.11456 -0.780557
v 1.612402 -0.338117 -0.780557
v 0.603271 -0.11456 -0.780557
v -0.652103 0.47776 -0.780557
v 0.603271 -0.00429 -0.780557
v -1.845527 0.47776 -0.780557
v -2.405696 0.313263 -0.780557
v -1.847957 0.47776 -0.780557
v -2.405696 0.313263 -0.780557
v -0.652103 0.47776 -0.780557
v 0.603271 -0.11456 -0.780557
v -0.652103 0.47776 -0.780557
v -2.405696 0.313263 -0.780557
v -1.845527 0.47776 -0.780557
v 1.973869 0.47776 0.96084
v 1.973869 0.47776 0.716203
v 2.701104 0.47776 1.001013
v 1.142275 0.47776 0.96084
v 1.973869 0.47776 0.96084
v 2.701104 0.47776 1.001013
v 2.701104 0.47776 1.001013
v -2.405696 0.47776 1.001013
v 0.603271 0.47776 0.96084
v 0.603271 0.47776 0.96084
v 1.142275 0.47776 0.96084
v 2.701104 0.47776 1.001013
v 1.973869 0.47776 -0.252637
v 1.973869 0.47776 -0.998987
v 2.701104 0.47776 -0.998987
v 2.701104 0.47776 -0.998987
v 2.701104 0.47776 1.001013
v 1.973869 0.47776 0.716203
v 1.973869 0.47776 0.716203
v 1.973869 0.47776 -0.252637
v 2.701104 0.47776 -0.998987
v 2.701104 -1.028412 -0.998987
v 2.701104 0.47776 -0.998987
v 1.973869 0.47776 -0.998987
v 0.603271 -0.11456 -0.998987
v 0.603271 0.47776 -0.998987
v -2.405696 0.47776 -0.998987
v 2.701104 -1.028412 -0.998987
v 1.973869 0.47776 -0.998987
v 1.973869 -0.084306 -0.998987
v 0.603271 -0.11456 -0.998987
v -2.405696 0.47776 -0.998987
v 2.701104 -1.028412 -0.998987
v 2.701104 -1.028412 -0.998987
v 1.973869 -0.084306 -0.998987
v 1.973869 -0.11456 -0.998987
v 1.946339 -0.11456 -0.998987
v 0.603271 -0.11456 -0.998987
v 2.701104 -1.028412 -0.998987
v 2.701104 -1.028412 -0.998987
v 1.973869 -0.11456 -0.998987
v 1.946339 -0.11456 -0.998987
v 1.973869 0.47776 -0.998987
v 1.973869 0.47776 -0.252637
v 1.973869 -0.084306 -0.998987
v 1.973869 -0.084306 -0.998987
v 1.973869 -0.11456 0.96084
v 1.973869 -0.11456 -0.998987
v 1.973869 -0.11456 0.96084
v 1.973869 0.47776 0.716203
v 1.973869 0.47776 0.96084
v 1.973869 0.47776 0.716203
v 1.973869 -0.084306 -0.998987
v 1.973869 0.47776 -0.252637
v 1.973869 -0.084306 -0.998987
v 1.973869 0.47776 0.716203
v 1.973869 -0.11456 0.96084
v 1.142275 0.47776 0.96084
v 1.973869 -0.11456 0.96084
v 1.973869 0.47776 0.96084
v 1.973869 -0.11456 0.96084
v 1.142275 0.47776 0.96084
v 0.603271 -0.11456 0.96084
v 1.142275 0.47776 0.96084
v 0.603271 0.47776 0.96084
v 0.603271 -0.11456 0.96084
v 1.973869 -0.11456 0.96084
v 1.946339 -0.11456 -0.998987
v 1.973869 -0.11456 -0.998987
v 2.701104 0.47776 1.001013
v 2.701104 0.47776 -0.998987
v 2.701104 -1.028412 -0.998987
v 2.701104 -1.028412 -0.998987
v 2.701104 -1.028412 1.001013
v 2.701104 0.47776 1.001013
v 2.701104 0.47776 1.001013
v 2.701104 -1.028412 1.001013
v -2.405696 -1.028412 1.001013
v -2.405696 -1.028412 1.001013
v -2.405696 0.47776 1.001013
v 2.701104 0.47776 1.001013
v -2.405696 -1.028412 1.001013
v 2.701104 -1.028412 1.001013
v 2.701104 -1.028412 -0.998987
v 2.701104 -1.028412 -0.998987
v -2.405696 -1.028412 -0.998987
v -2.405696 -1.028412 1.001013
v -2.405696 0.47776 -0.998987
v -2.405696 -1.028412 -0.998987
v 2.701104 -1.028412 -0.998987
vt 0.109192 0.843262
vt 0 1
vt 0.109192 1
vt 0.890625 0.890625
vt 0.890625 1
vt 1 1
vt 0.020081 0.410645
vt 0 1
vt 0.109192 0.843262
vt 0.109192 0.587891
vt 0.109192 0.410645
vt 0.020081 0.410645
vt 0.020081 0.410645
vt 0.109192 0.843262
vt 0.109192 0.587891
vt 0.890625 0.890137
vt 1 1
vt 1 0.410645
vt 1 0.410645
vt 0.890625 0.410645
vt 0.890625 0.65625
vt 0.890625 0.65625
vt 0.890625 0.890137
vt 1 0.410645
vt 0.890625 0.890137
vt 0.890625 0.890625
vt 1 1
vt 0.606445 0.910645
vt 0.910156 0.910645
vt 1 1
vt 1 1
vt 0.606445 1
vt 0.606445 0.910645
vt 0.910645 0.910645
vt 1 1
vt 0.910156 0.910645
vt 1 0.129272
vt 0.926758 0.129272
vt 1 0.020081
vt 0.910645 0.910645
vt 1 0.910645
vt 1 1
vt 0.606445 0.020081
vt 1 0.020081
vt 0.926758 0.129272
vt 0.906738 0.129272
vt 0.606445 0.129272
vt 0.606445 0.020081
vt 0.606445 0.020081
vt 0.926758 0.129272
vt 0.906738 0.129272
vt 0.73584 0.73584
vt 0.979492 0.979492
vt 0 1
vt 0 1
vt 0 0
vt 0.089111 0.089111
vt 0.089111 0.73584
vt 0.73584 0.73584
vt 0 1
vt 0 1
vt 0.089111 0.089111
vt 0.089111 0.73584
vt 0.979492 0.979492
vt 0.73584 0.73584
vt 0.754395 0.73584
vt 0.870605 0.283447
vt 0.870605 0
vt 0.979492 0
vt 0.979492 0.979492
vt 0.754395 0.73584
vt 0.870605 0.73584
vt 0.870605 0.73584
vt 0.870605 0.283447
vt 0.979492 0
vt 0.979492 0
vt 0.979492 0.979492
vt 0.870605 0.73584
vt 0.089111 0
vt 0.089111 0.089111
vt 0 0
vt 0.109192 0.109192
vt 0 0
vt 0 0.109192
vt 0.502441 0.890625
vt 0 0.890625
vt 0 1
vt 1 1
vt 0.541504 0.541504
vt 0.541504 0.860352
vt 0.541504 0.890625
vt 0.502441 0.890625
vt 0 1
vt 1 1
vt 0.541504 0.860352
vt 0.541504 0.890625
vt 0.541504 0.890625
vt 0 1
vt 1 1
vt 0.541504 0.541504
vt 1 1
vt 1 0
vt 1 0
vt 0 0
vt 0.109192 0.109192
vt 0.541504 0.109192
vt 0.541504 0.541504
vt 1 0
vt 1 0
vt 0.109192 0.109192
vt 0.541504 0.109192
vt 0.851563 0.851563
vt 1 1
vt 0.851563 1
vt 0.851563 0.851563
vt 1 0
vt 1 1
vt 1 0
vt 0.851563 0.827637
vt 0.851563 0
vt 0.851563 0.827637
vt 1 0
vt 0.851563 0.851563
vt 0.212158 0.851563
vt 0 1
vt 0 0.851563
vt 0 1
vt 0.960938 0.960938
vt 0.960938 1
vt 0.960938 0.960938
vt 0.241333 0.458252
vt 0.458252 0.458252
vt 0.241333 0.851563
vt 0 1
vt 0.212158 0.851563
vt 0.960938 0.960938
vt 0.241333 0.761719
vt 0.241333 0.458252
vt 0.241333 0.851563
vt 0.960938 0.960938
vt 0 1
vt 0.960938 0.960938
vt 0.241333 0.762207
vt 0.241333 0.761719
vt 0.241333 0.762207
vt 0.960938 0.960938
vt 0.241333 0.851563
vt 0.769531 0.458252
vt 0.960938 0.960938
vt 0.458252 0.458252
vt 0.960938 0.960938
vt 0.769531 0.458252
vt 0.960938 0.458252
vt 0.038818 0.038818
vt 0 1
vt 0 0.038818
vt 0 1
vt 0.038818 0.038818
vt 1 1
vt 1 1
vt 0.446533 0.038818
vt 1 0.038818
vt 0.446533 0.038818
vt 1 1
vt 0.038818 0.038818
vt 0.148315 0.148315
vt 0 0.148315
vt 0 0
vt 0.241333 0.541504
vt 0.241333 0.241333
vt 0.541504 0.541504
vt 0.960938 0.432373
vt 0 0
vt 0.960938 0
vt 0 0
vt 0.241333 0.148315
vt 0.148315 0.148315
vt 0.241333 0.221558
vt 0.541504 0.541504
vt 0.241333 0.241333
vt 0.827637 0.541504
vt 0.960938 0.432373
vt 0.960938 0.541504
vt 0.960938 0.432373
vt 0.241333 0.148315
vt 0 0
vt 0.241333 0.148315
vt 0.541504 0.541504
vt 0.241333 0.221558
vt 0.827148 0.541504
vt 0.960938 0.432373
vt 0.827637 0.541504
vt 0.960938 0.432373
vt 0.541504 0.541504
vt 0.241333 0.148315
vt 0.541504 0.541504
vt 0.960938 0.432373
vt 0.827148 0.541504
vt 0.020081 0.142334
vt 0.142334 0.142334
vt 0 0
vt 0.020081 0.305176
vt 0.020081 0.142334
vt 0 0
vt 0 0
vt 0 1
vt 0.020081 0.410645
vt 0.020081 0.410645
vt 0.020081 0.305176
vt 0 0
vt 0.626465 0.142334
vt 1 0.142334
vt 1 0
vt 1 0
vt 0 0
vt 0.142334 0.142334
vt 0.142334 0.142334
vt 0.626465 0.142334
vt 1 0
vt 0 0
vt 0 1
vt 0.142334 1
vt 0.410645 0.606445
vt 0.410645 1
vt 1 1
vt 0 0
vt 0.142334 1
vt 0.142334 0.626465
vt 0.410645 0.606445
vt 1 1
vt 0 0
vt 0 0
vt 0.142334 0.626465
vt 0.142334 0.606445
vt 0.147705 0.606445
vt 0.410645 0.606445
vt 0 0
vt 0 0
vt 0.142334 0.606445
vt 0.147705 0.606445
vt 0.606445 0.979492
vt 0.606445 0.606445
vt 0.979492 0.979492
vt 0.979492 0.979492
vt 1 0
vt 1 0.979492
vt 1 0
vt 0.606445 0.122314
vt 0.606445 0
vt 0.606445 0.122314
vt 0.979492 0.979492
vt 0.606445 0.606445
vt 0.979492 0.979492
vt 0.606445 0.122314
vt 1 0
vt 0.606445 0.606445
vt 0 1
vt 0 0.606445
vt 0 1
vt 0.606445 0.606445
vt 1 1
vt 0.606445 0.606445
vt 1 0.606445
vt 1 1
vt 0 1
vt 0.979492 0.979492
vt 0.979492 1
vt 0 0
vt 0 1
vt 1 1
vt 1 1
vt 1 0
vt 0 0
vt 0 0
vt 0 1
vt 1 1
vt 1 1
vt 1 0
vt 0 0
vt 0 0
vt 0 1
vt 1 1
vt 1 1
vt 1 0
vt 0 0
vt 1 1
vt 1 0
vt 0 0
vn 0 1 0
vn 0 1 0
vn 0 1 0
vn 0 1 0
vn 0 1 0
vn 0 1 0
vn 0 1 0
vn 0 1 0
vn 0 1 0
vn 0 1 0
vn 0 1 0
vn 0 1 0
vn 0 1 0
vn 0 1 0
vn 0 1 0
vn 0 1 0
vn 0 1 0
vn 0 1 0
vn 0 1 0
vn 0 1 0
vn 0 1 0
vn 0 1 0
vn 0 1 0
vn 0 1 0
vn 0 1 0
vn 0 1 0
vn 0 1 0
vn 1 0 0
vn 1 0 0
vn 1 0 0
vn 1 0 0
vn 1 0 0
vn 1 0 0
vn 1 0 0
vn 1 0 0
vn 1 0 0
vn 1 0 0
vn 1 0 0
vn 1 0 0
vn 1 0 0
vn 1 0 0
vn 1 0 0
vn 1 0 0
vn 1 0 0
vn 1 0 0
vn 1 0 0
vn 1 0 0
vn 1 0 0
vn 1 0 0
vn 1 0 0
vn 1 0 0
vn 0 1 0
vn 0 1 0
vn 0 1 0
vn 0 1 0
vn 0 1 0
vn 0 1 0
vn 0 1 0
vn 0 1 0
vn 0 1 0
vn 0 1 0
vn 0 1 0
vn 0 1 0
vn 0 1 0
vn 0 1 0
vn 0 1 0
vn 0 1 0
vn 0 1 0
vn 0 1 0
vn 0 1 0
vn 0 1 0
vn 0 1 0
vn 0 1 0
vn 0 1 0
vn 0 1 0
vn 0 1 0
vn 0 1 0
vn 0 1 0
vn 0 1 0
vn 0 1 0
vn 0 1 0
vn -1 0 0
vn -1 0 0
vn -1 0 0
vn -1 0 0
vn -1 0 0
vn -1 0 0
vn -1 0 0
vn -1 0 0
vn -1 0 0
vn -1 0 0
vn -1 0 0
vn -1 0 0
vn -1 0 0
vn -1 0 0
vn -1 0 0
vn -1 0 0
vn -1 0 0
vn -1 0 0
vn -1 0 0
vn -1 0 0
vn -1 0 0
vn -1 0 0
vn -1 0 0
vn -1 0 0
vn -1 0 0
vn -1 0 0
vn -1 0 0
vn -1 0 0
vn -1 0 0
vn -1 0 0
vn -1 0 0
vn -1 0 0
vn -1 0 0
vn -1 0 0
vn -1 0 0
vn -1 0 0
vn -1 0 0
vn -1 0 0
vn -1 0 0
vn -1 0 0
vn -1 0 0
vn -1 0 0
vn 0 0 -1
vn 0 0 -1
vn 0 0 -1
vn 0 0 -1
vn 0 0 -1
vn 0 0 -1
vn 0 0 -1
vn 0 0 -1
vn 0 0 -1
vn 0 0 -1
vn 0 0 -1
vn 0 0 -1
vn 0 0 -1
vn 0 0 -1
vn 0 0 -1
vn 0 0 -1
vn 0 0 -1
vn 0 0 -1
vn 0 0 -1
vn 0 0 -1
vn 0 0 -1
vn 0 0 -1
vn 0 0 -1
vn 0 0 -1
vn 0 0 -1
vn 0 0 -1
vn 0 0 -1
vn 0 0 -1
vn 0 0 -1
vn 0 0 -1
vn 0 1 0
vn 0 1 0
vn 0 1 0
vn 0 1 0
vn 0 1 0
vn 0 1 0
vn 0 1 0
vn 0 1 0
vn 0 1 0
vn 0 1 0
vn 0 1 0
vn 0 1 0
vn 0 0 1
vn 0 0 1
vn 0 0 1
vn 0 0 1
vn 0 0 1
vn 0 0 1
vn 0 0 1
vn 0 0 1
vn 0 0 1
vn 0 0 1
vn 0 0 1
vn 0 0 1
vn 0 0 1
vn 0 0 1
vn 0 0 1
vn 0 0 1
vn 0 0 1
vn 0 0 1
vn 0 0 1
vn 0 0 1
vn 0 0 1
vn 0 0 1
vn 0 0 1
vn 0 0 1
vn 0 0 1
vn 0 0 1
vn 0 0 1
vn 0 0 1
vn 0 0 1
vn 0 0 1
vn 0 0 1
vn 0 0 1
vn 0 0 1
vn 0 1 0
vn 0 1 0
vn 0 1 0
vn 0 1 0
vn 0 1 0
vn 0 1 0
vn 0 1 0
vn 0 1 0
vn 0 1 0
vn 0 1 0
vn 0 1 0
vn 0 1 0
vn 0 1 0
vn 0 1 0
vn 0 1 0
vn 0 1 0
vn 0 1 0
vn 0 1 0
vn 0 1 0
vn 0 1 0
vn 0 1 0
vn 0 0 -1
vn 0 0 -1
vn 0 0 -1
vn 0 0 -1
vn 0 0 -1
vn 0 0 -1
vn 0 0 -1
vn 0 0 -1
vn 0 0 -1
vn 0 0 -1
vn 0 0 -1
vn 0 0 -1
vn 0 0 -1
vn 0 0 -1
vn 0 0 -1
vn 0 0 -1
vn 0 0 -1
vn 0 0 -1
vn 0 0 -1
vn 0 0 -1
vn 0 0 -1
vn -1 0 0
vn -1 0 0
vn -1 0 0
vn -1 0 0
vn -1 0 0
vn -1 0 0
vn -1 0 0
vn -1 0 0
vn -1 0 0
vn -1 0 0
vn -1 0 0
vn -1 0 0
vn -1 0 0
vn -1 0 0
vn -1 0 0
vn 0 0 -1
vn 0 0 -1
vn 0 0 -1
vn 0 0 -1
vn 0 0 -1
vn 0 0 -1
vn 0 0 -1
vn 0 0 -1
vn 0 0 -1
vn 0 1 0
vn 0 1 0
vn 0 1 0
vn 1 0 0
vn 1 0 0
vn 1 0 0
vn 1 0 0
vn 1 0 0
vn 1 0 0
vn 0 0 1
vn 0 0 1
vn 0 0 1
vn 0 0 1
vn 0 0 1
vn 0 0 1
vn 0 -1 0
vn 0 -1 0
vn 0 -1 0
vn 0 -1 0
vn 0 -1 0
vn 0 -1 0
vn 0 0 -1
vn 0 0 -1
vn 0 0 -1
g surface0
usemtl [SpatialMaterial:24909]
f 3/3/3 2/2/2 1/1/1
f 6/6/6 5/5/5 4/4/4
f 9/9/9 8/8/8 7/7/7
f 12/12/12 11/11/11 10/10/10
f 15/15/15 14/14/14 13/13/13
f 18/18/18 17/17/17 16/16/16
f 21/21/21 20/20/20 19/19/19
f 24/24/24 23/23/23 22/22/22
f 27/27/27 26/26/26 25/25/25
f 30/30/30 29/29/29 28/28/28
f 33/33/33 32/32/32 31/31/31
f 36/36/36 35/35/35 34/34/34
f 39/39/39 38/38/38 37/37/37
f 42/42/42 41/41/41 40/40/40
f 45/45/45 44/44/44 43/43/43
f 48/48/48 47/47/47 46/46/46
f 51/51/51 50/50/50 49/49/49
f 54/54/54 53/53/53 52/52/52
f 57/57/57 56/56/56 55/55/55
f 60/60/60 59/59/59 58/58/58
f 63/63/63 62/62/62 61/61/61
f 66/66/66 65/65/65 64/64/64
f 69/69/69 68/68/68 67/67/67
f 72/72/72 71/71/71 70/70/70
f 75/75/75 74/74/74 73/73/73
f 78/78/78 77/77/77 76/76/76
f 81/81/81 80/80/80 79/79/79
f 84/84/84 83/83/83 82/82/82
f 87/87/87 86/86/86 85/85/85
f 90/90/90 89/89/89 88/88/88
f 93/93/93 92/92/92 91/91/91
f 96/96/96 95/95/95 94/94/94
f 99/99/99 98/98/98 97/97/97
f 102/102/102 101/101/101 100/100/100
f 105/105/105 104/104/104 103/103/103
f 108/108/108 107/107/107 106/106/106
f 111/111/111 110/110/110 109/109/109
f 114/114/114 113/113/113 112/112/112
f 117/117/117 116/116/116 115/115/115
f 120/120/120 119/119/119 118/118/118
f 123/123/123 122/122/122 121/121/121
f 126/126/126 125/125/125 124/124/124
f 129/129/129 128/128/128 127/127/127
f 132/132/132 131/131/131 130/130/130
f 135/135/135 134/134/134 133/133/133
f 138/138/138 137/137/137 136/136/136
f 141/141/141 140/140/140 139/139/139
f 144/144/144 143/143/143 142/142/142
f 147/147/147 146/146/146 145/145/145
f 150/150/150 149/149/149 148/148/148
f 153/153/153 152/152/152 151/151/151
f 156/156/156 155/155/155 154/154/154
f 159/159/159 158/158/158 157/157/157
f 162/162/162 161/161/161 160/160/160
f 165/165/165 164/164/164 163/163/163
f 168/168/168 167/167/167 166/166/166
f 171/171/171 170/170/170 169/169/169
f 174/174/174 173/173/173 172/172/172
f 177/177/177 176/176/176 175/175/175
f 180/180/180 179/179/179 178/178/178
f 183/183/183 182/182/182 181/181/181
f 186/186/186 185/185/185 184/184/184
f 189/189/189 188/188/188 187/187/187
f 192/192/192 191/191/191 190/190/190
f 195/195/195 194/194/194 193/193/193
f 198/198/198 197/197/197 196/196/196
f 201/201/201 200/200/200 199/199/199
f 204/204/204 203/203/203 202/202/202
f 207/207/207 206/206/206 205/205/205
f 210/210/210 209/209/209 208/208/208
f 213/213/213 212/212/212 211/211/211
f 216/216/216 215/215/215 214/214/214
f 219/219/219 218/218/218 217/217/217
f 222/222/222 221/221/221 220/220/220
f 225/225/225 224/224/224 223/223/223
f 228/228/228 227/227/227 226/226/226
f 231/231/231 230/230/230 229/229/229
f 234/234/234 233/233/233 232/232/232
f 237/237/237 236/236/236 235/235/235
f 240/240/240 239/239/239 238/238/238
f 243/243/243 242/242/242 241/241/241
f 246/246/246 245/245/245 244/244/244
f 249/249/249 248/248/248 247/247/247
f 252/252/252 251/251/251 250/250/250
f 255/255/255 254/254/254 253/253/253
f 258/258/258 257/257/257 256/256/256
f 261/261/261 260/260/260 259/259/259
f 264/264/264 263/263/263 262/262/262
f 267/267/267 266/266/266 265/265/265
f 270/270/270 269/269/269 268/268/268
f 273/273/273 272/272/272 271/271/271
f 276/276/276 275/275/275 274/274/274
f 279/279/279 278/278/278 277/277/277
f 282/282/282 281/281/281 280/280/280
f 285/285/285 284/284/284 283/283/283
f 288/288/288 287/287/287 286/286/286
